<?xml version="1.0" encoding="utf-8" standalone="no"?>
<!DOCTYPE svg PUBLIC "-//W3C//DTD SVG 1.1//EN"
  "http://www.w3.org/Graphics/SVG/1.1/DTD/svg11.dtd">
<svg xmlns:xlink="http://www.w3.org/1999/xlink" width="460.8pt" height="345.6pt" viewBox="0 0 460.8 345.6" xmlns="http://www.w3.org/2000/svg" version="1.1">
 <metadata>
  <rdf:RDF xmlns:dc="http://purl.org/dc/elements/1.1/" xmlns:cc="http://creativecommons.org/ns#" xmlns:rdf="http://www.w3.org/1999/02/22-rdf-syntax-ns#">
   <cc:Work>
    <dc:type rdf:resource="http://purl.org/dc/dcmitype/StillImage"/>
    <dc:date>2026-02-19T16:55:40.649699</dc:date>
    <dc:format>image/svg+xml</dc:format>
    <dc:creator>
     <cc:Agent>
      <dc:title>Matplotlib v3.9.1, https://matplotlib.org/</dc:title>
     </cc:Agent>
    </dc:creator>
   </cc:Work>
  </rdf:RDF>
 </metadata>
 <defs>
  <style type="text/css">*{stroke-linejoin: round; stroke-linecap: butt}</style>
 </defs>
 <g id="figure_1">
  <g id="patch_1">
   <path d="M 0 345.6 
L 460.8 345.6 
L 460.8 0 
L 0 0 
L 0 345.6 
z
" style="fill: none"/>
  </g>
  <g id="axes_1">
   <g id="patch_2">
    <path d="M 175.68 235.008 
L 296.64 235.008 
L 296.64 114.048 
L 175.68 114.048 
z
" clip-path="url(#p7e9d21c3f7)" style="fill: #0072b2; opacity: 0.1; stroke: #0072b2; stroke-linejoin: miter"/>
   </g>
   <g id="line2d_1">
    <path d="M 175.68 235.008 
L 296.64 235.008 
L 296.64 114.048 
L 175.68 114.048 
L 175.68 235.008 
" clip-path="url(#p7e9d21c3f7)" style="fill: none; stroke: #000000; stroke-width: 1.5; stroke-linecap: square"/>
   </g>
   <g id="line2d_2">
    <defs>
     <path id="mbb858690bc" d="M 0 4 
C 1.060812 4 2.078319 3.578535 2.828427 2.828427 
C 3.578535 2.078319 4 1.060812 4 0 
C 4 -1.060812 3.578535 -2.078319 2.828427 -2.828427 
C 2.078319 -3.578535 1.060812 -4 0 -4 
C -1.060812 -4 -2.078319 -3.578535 -2.828427 -2.828427 
C -3.578535 -2.078319 -4 -1.060812 -4 0 
C -4 1.060812 -3.578535 2.078319 -2.828427 2.828427 
C -2.078319 3.578535 -1.060812 4 0 4 
z
" style="stroke: #000000; stroke-opacity: 0.7"/>
    </defs>
    <g clip-path="url(#p7e9d21c3f7)">
     <use xlink:href="#mbb858690bc" x="175.68" y="235.008" style="fill-opacity: 0.7; stroke: #000000; stroke-opacity: 0.7"/>
     <use xlink:href="#mbb858690bc" x="175.68" y="114.048" style="fill-opacity: 0.7; stroke: #000000; stroke-opacity: 0.7"/>
     <use xlink:href="#mbb858690bc" x="296.64" y="114.048" style="fill-opacity: 0.7; stroke: #000000; stroke-opacity: 0.7"/>
     <use xlink:href="#mbb858690bc" x="296.64" y="235.008" style="fill-opacity: 0.7; stroke: #000000; stroke-opacity: 0.7"/>
    </g>
   </g>
   <g id="patch_3">
    <path d="M 292.406881 259.2 
Q 236.161667 259.2 179.916452 259.2 
" style="fill: none; stroke: #dc5e8b; stroke-width: 2; stroke-linecap: round"/>
    <path d="M 288.406881 257.2 
L 292.406881 259.2 
L 288.406881 261.2 
" style="fill: none; stroke: #dc5e8b; stroke-width: 2; stroke-linecap: round"/>
    <path d="M 183.916452 261.2 
L 179.916452 259.2 
L 183.916452 257.2 
" style="fill: none; stroke: #dc5e8b; stroke-width: 2; stroke-linecap: round"/>
   </g>
   <g id="text_1">
    <!-- $s$ -->
    <g style="fill: #dc5e8b" transform="translate(231.564995 276.1344) scale(0.2 -0.2)">
     <defs>
      <path id="CMMI12-73" d="M 1459 1280 
C 1568 1261 1741 1223 1779 1216 
C 1862 1192 2150 1090 2150 783 
C 2150 586 1971 70 1229 70 
C 1094 70 614 70 486 436 
C 742 404 870 603 870 745 
C 870 880 781 950 653 950 
C 512 950 326 841 326 552 
C 326 173 710 -64 1222 -64 
C 2195 -64 2483 651 2483 984 
C 2483 1079 2483 1258 2278 1462 
C 2118 1616 1965 1648 1619 1718 
C 1446 1756 1171 1814 1171 2101 
C 1171 2229 1286 2689 1894 2689 
C 2163 2689 2426 2589 2490 2368 
C 2208 2368 2195 2125 2195 2119 
C 2195 1984 2317 1946 2374 1946 
C 2464 1946 2643 2015 2643 2281 
C 2643 2545 2400 2816 1901 2816 
C 1062 2816 838 2160 838 1899 
C 838 1414 1312 1312 1459 1280 
z
" transform="scale(0.015625)"/>
     </defs>
     <use xlink:href="#CMMI12-73" transform="scale(0.996264)"/>
    </g>
   </g>
   <g id="patch_4">
    <path d="M 311.1552 118.281119 
Q 311.1552 174.526333 311.1552 230.771548 
" style="fill: none; stroke: #dc5e8b; stroke-width: 2; stroke-linecap: round"/>
    <path d="M 309.1552 122.281119 
L 311.1552 118.281119 
L 313.1552 122.281119 
" style="fill: none; stroke: #dc5e8b; stroke-width: 2; stroke-linecap: round"/>
    <path d="M 313.1552 226.771548 
L 311.1552 230.771548 
L 309.1552 226.771548 
" style="fill: none; stroke: #dc5e8b; stroke-width: 2; stroke-linecap: round"/>
   </g>
   <g id="text_2">
    <!-- $s$ -->
    <g style="fill: #dc5e8b" transform="translate(328.0896 174.528) scale(0.2 -0.2)">
     <use xlink:href="#CMMI12-73" transform="scale(0.996264)"/>
    </g>
   </g>
  </g>
 </g>
 <defs>
  <clipPath id="p7e9d21c3f7">
   <rect x="103.104" y="41.472" width="266.112" height="266.112"/>
  </clipPath>
 </defs>
</svg>
