<?xml version="1.0" encoding="utf-8" standalone="no"?>
<!DOCTYPE svg PUBLIC "-//W3C//DTD SVG 1.1//EN"
  "http://www.w3.org/Graphics/SVG/1.1/DTD/svg11.dtd">
<svg xmlns:xlink="http://www.w3.org/1999/xlink" width="460.8pt" height="345.6pt" viewBox="0 0 460.8 345.6" xmlns="http://www.w3.org/2000/svg" version="1.1">
 <metadata>
  <rdf:RDF xmlns:dc="http://purl.org/dc/elements/1.1/" xmlns:cc="http://creativecommons.org/ns#" xmlns:rdf="http://www.w3.org/1999/02/22-rdf-syntax-ns#">
   <cc:Work>
    <dc:type rdf:resource="http://purl.org/dc/dcmitype/StillImage"/>
    <dc:date>2026-02-19T16:55:41.061484</dc:date>
    <dc:format>image/svg+xml</dc:format>
    <dc:creator>
     <cc:Agent>
      <dc:title>Matplotlib v3.9.1, https://matplotlib.org/</dc:title>
     </cc:Agent>
    </dc:creator>
   </cc:Work>
  </rdf:RDF>
 </metadata>
 <defs>
  <style type="text/css">*{stroke-linejoin: round; stroke-linecap: butt}</style>
 </defs>
 <g id="figure_1">
  <g id="patch_1">
   <path d="M 0 345.6 
L 460.8 345.6 
L 460.8 0 
L 0 0 
L 0 345.6 
z
" style="fill: none"/>
  </g>
  <g id="axes_1">
   <g id="patch_2">
    <path d="M 162.24 218.88 
L 339.648 218.88 
L 310.08 100.608 
L 191.808 100.608 
z
" clip-path="url(#p500ba70f75)" style="fill: #0072b2; opacity: 0.1; stroke: #0072b2; stroke-linejoin: miter"/>
   </g>
   <g id="line2d_1">
    <path d="M 162.24 218.88 
L 339.648 218.88 
L 310.08 100.608 
L 191.808 100.608 
L 162.24 218.88 
" clip-path="url(#p500ba70f75)" style="fill: none; stroke: #000000; stroke-width: 1.5; stroke-linecap: square"/>
   </g>
   <g id="line2d_2">
    <defs>
     <path id="mb0d62e95e9" d="M 0 4 
C 1.060812 4 2.078319 3.578535 2.828427 2.828427 
C 3.578535 2.078319 4 1.060812 4 0 
C 4 -1.060812 3.578535 -2.078319 2.828427 -2.828427 
C 2.078319 -3.578535 1.060812 -4 0 -4 
C -1.060812 -4 -2.078319 -3.578535 -2.828427 -2.828427 
C -3.578535 -2.078319 -4 -1.060812 -4 0 
C -4 1.060812 -3.578535 2.078319 -2.828427 2.828427 
C -2.078319 3.578535 -1.060812 4 0 4 
z
" style="stroke: #000000; stroke-opacity: 0.7"/>
    </defs>
    <g clip-path="url(#p500ba70f75)">
     <use xlink:href="#mb0d62e95e9" x="162.24" y="218.88" style="fill-opacity: 0.7; stroke: #000000; stroke-opacity: 0.7"/>
     <use xlink:href="#mb0d62e95e9" x="339.648" y="218.88" style="fill-opacity: 0.7; stroke: #000000; stroke-opacity: 0.7"/>
     <use xlink:href="#mb0d62e95e9" x="310.08" y="100.608" style="fill-opacity: 0.7; stroke: #000000; stroke-opacity: 0.7"/>
     <use xlink:href="#mb0d62e95e9" x="191.808" y="100.608" style="fill-opacity: 0.7; stroke: #000000; stroke-opacity: 0.7"/>
    </g>
   </g>
   <g id="line2d_3">
    <path d="M 191.808 218.88 
L 191.808 100.608 
" clip-path="url(#p500ba70f75)" style="fill: none; stroke-dasharray: 3.7,1.6; stroke-dashoffset: 0; stroke: #000000; stroke-opacity: 0.5"/>
   </g>
   <g id="patch_3">
    <path d="M 335.411436 248.448 
Q 250.943427 248.448 166.475418 248.448 
" style="fill: none; stroke: #dc5e8b; stroke-width: 2; stroke-linecap: round"/>
    <path d="M 331.411436 246.448 
L 335.411436 248.448 
L 331.411436 250.448 
" style="fill: none; stroke: #dc5e8b; stroke-width: 2; stroke-linecap: round"/>
    <path d="M 170.475418 250.448 
L 166.475418 248.448 
L 170.475418 246.448 
" style="fill: none; stroke: #dc5e8b; stroke-width: 2; stroke-linecap: round"/>
   </g>
   <g id="text_1">
    <!-- $b$ -->
    <g style="fill: #dc5e8b" transform="translate(246.796414 269.1456) scale(0.2 -0.2)">
     <defs>
      <path id="CMMI12-62" d="M 1478 4257 
C 1485 4283 1498 4321 1498 4352 
C 1498 4416 1434 4416 1421 4416 
C 1414 4416 1184 4393 1069 4377 
C 960 4377 864 4358 749 4358 
C 595 4345 550 4339 550 4224 
C 550 4160 614 4160 678 4160 
C 1005 4160 1005 4103 1005 4040 
C 1005 3996 954 3811 928 3696 
L 774 3085 
C 710 2831 346 1387 320 1272 
C 288 1114 288 1005 288 922 
C 288 274 653 -64 1069 -64 
C 1811 -64 2579 888 2579 1814 
C 2579 2401 2246 2816 1766 2816 
C 1434 2816 1133 2542 1011 2414 
L 1478 4257 
z
M 1075 64 
C 870 64 646 217 646 715 
C 646 926 666 1047 781 1494 
C 800 1577 902 1986 928 2069 
C 941 2120 1318 2689 1754 2689 
C 2035 2689 2163 2408 2163 2076 
C 2163 1769 1984 1047 1824 715 
C 1664 370 1370 64 1075 64 
z
" transform="scale(0.015625)"/>
     </defs>
     <use xlink:href="#CMMI12-62" transform="scale(0.996264)"/>
    </g>
   </g>
   <g id="patch_4">
    <path d="M 321.9072 214.640729 
Q 321.9072 159.741229 321.9072 104.841728 
" style="fill: none; stroke: #dc5e8b; stroke-width: 2; stroke-linecap: round"/>
    <path d="M 323.9072 210.640729 
L 321.9072 214.640729 
L 319.9072 210.640729 
" style="fill: none; stroke: #dc5e8b; stroke-width: 2; stroke-linecap: round"/>
    <path d="M 319.9072 108.841728 
L 321.9072 104.841728 
L 323.9072 108.841728 
" style="fill: none; stroke: #dc5e8b; stroke-width: 2; stroke-linecap: round"/>
   </g>
   <g id="text_2">
    <!-- $h$ -->
    <g style="fill: #dc5e8b" transform="translate(345.5616 159.744) scale(0.2 -0.2)">
     <defs>
      <path id="CMMI12-68" d="M 1798 4257 
C 1805 4283 1818 4321 1818 4352 
C 1818 4416 1754 4416 1741 4416 
C 1734 4416 1421 4388 1389 4380 
C 1280 4373 1184 4358 1069 4358 
C 909 4345 864 4339 864 4224 
C 864 4160 915 4160 1005 4160 
C 1318 4160 1325 4103 1325 4040 
C 1325 4002 1312 3951 1306 3932 
L 378 248 
C 352 152 352 140 352 101 
C 352 -38 461 -64 525 -64 
C 634 -64 717 19 749 89 
L 1037 1245 
C 1069 1386 1107 1520 1139 1660 
C 1210 1929 1210 1935 1331 2120 
C 1453 2305 1741 2689 2234 2689 
C 2490 2689 2579 2497 2579 2242 
C 2579 1884 2330 1188 2189 805 
C 2131 651 2099 568 2099 453 
C 2099 166 2298 -64 2605 -64 
C 3200 -64 3424 875 3424 913 
C 3424 945 3398 971 3360 971 
C 3302 971 3296 952 3264 843 
C 3117 332 2880 64 2624 64 
C 2560 64 2458 64 2458 269 
C 2458 436 2534 640 2560 710 
C 2675 1018 2963 1773 2963 2145 
C 2963 2528 2739 2816 2253 2816 
C 1888 2816 1568 2644 1306 2312 
L 1798 4257 
z
" transform="scale(0.015625)"/>
     </defs>
     <use xlink:href="#CMMI12-68" transform="scale(0.996264)"/>
    </g>
   </g>
   <g id="patch_5">
    <path d="M 305.840729 79.9104 
Q 250.941229 79.9104 196.041728 79.9104 
" style="fill: none; stroke: #dc5e8b; stroke-width: 2; stroke-linecap: round"/>
    <path d="M 301.840729 77.9104 
L 305.840729 79.9104 
L 301.840729 81.9104 
" style="fill: none; stroke: #dc5e8b; stroke-width: 2; stroke-linecap: round"/>
    <path d="M 200.041728 81.9104 
L 196.041728 79.9104 
L 200.041728 77.9104 
" style="fill: none; stroke: #dc5e8b; stroke-width: 2; stroke-linecap: round"/>
   </g>
   <g id="text_3">
    <!-- $a$ -->
    <g style="fill: #dc5e8b" transform="translate(245.823219 62.1696) scale(0.2 -0.2)">
     <defs>
      <path id="CMMI12-61" d="M 1926 760 
C 1894 651 1894 639 1805 517 
C 1664 338 1382 64 1082 64 
C 819 64 672 300 672 677 
C 672 1028 870 1743 992 2012 
C 1210 2459 1510 2689 1760 2689 
C 2182 2689 2266 2165 2266 2114 
C 2266 2108 2246 2024 2240 2012 
L 1926 760 
z
M 2336 2395 
C 2266 2561 2093 2816 1760 2816 
C 1037 2816 256 1884 256 939 
C 256 307 627 -64 1062 -64 
C 1414 -64 1715 211 1894 422 
C 1958 45 2259 -64 2451 -64 
C 2643 -64 2797 51 2912 281 
C 3014 498 3104 888 3104 913 
C 3104 945 3078 971 3040 971 
C 2982 971 2976 939 2950 843 
C 2854 466 2733 64 2470 64 
C 2285 64 2272 230 2272 358 
C 2272 505 2291 575 2349 824 
C 2394 984 2426 1124 2477 1309 
C 2714 2267 2771 2497 2771 2535 
C 2771 2625 2701 2695 2605 2695 
C 2400 2695 2349 2472 2336 2395 
z
" transform="scale(0.015625)"/>
     </defs>
     <use xlink:href="#CMMI12-61" transform="scale(0.996264)"/>
    </g>
   </g>
  </g>
 </g>
 <defs>
  <clipPath id="p500ba70f75">
   <rect x="73.536" y="41.472" width="325.248" height="266.112"/>
  </clipPath>
 </defs>
</svg>
