<?xml version="1.0" encoding="utf-8" standalone="no"?>
<!DOCTYPE svg PUBLIC "-//W3C//DTD SVG 1.1//EN"
  "http://www.w3.org/Graphics/SVG/1.1/DTD/svg11.dtd">
<svg xmlns:xlink="http://www.w3.org/1999/xlink" width="432pt" height="432pt" viewBox="0 0 432 432" xmlns="http://www.w3.org/2000/svg" version="1.1">
 <metadata>
  <rdf:RDF xmlns:dc="http://purl.org/dc/elements/1.1/" xmlns:cc="http://creativecommons.org/ns#" xmlns:rdf="http://www.w3.org/1999/02/22-rdf-syntax-ns#">
   <cc:Work>
    <dc:type rdf:resource="http://purl.org/dc/dcmitype/StillImage"/>
    <dc:date>2026-02-20T18:28:22.550248</dc:date>
    <dc:format>image/svg+xml</dc:format>
    <dc:creator>
     <cc:Agent>
      <dc:title>Matplotlib v3.9.1, https://matplotlib.org/</dc:title>
     </cc:Agent>
    </dc:creator>
   </cc:Work>
  </rdf:RDF>
 </metadata>
 <defs>
  <style type="text/css">*{stroke-linejoin: round; stroke-linecap: butt}</style>
 </defs>
 <g id="figure_1">
  <g id="patch_1">
   <path d="M 0 432 
L 432 432 
L 432 0 
L 0 0 
L 0 432 
z
" style="fill: none"/>
  </g>
  <g id="axes_1">
   <g id="patch_2">
    <path d="M 71.725824 341.883218 
L 387.411717 341.883218 
L 387.411717 26.197325 
L 71.725824 26.197325 
z
" clip-path="url(#pa4ee07bb34)" style="fill: #0072b2; opacity: 0.1; stroke: #0072b2; stroke-linejoin: miter"/>
   </g>
   <g id="patch_3">
    <path d="M 71.725824 341.883218 
L 124.34014 341.883218 
L 124.34014 289.268902 
L 71.725824 289.268902 
z
" clip-path="url(#pa4ee07bb34)" style="fill: #0072b2; opacity: 0.3; stroke: #0072b2; stroke-linejoin: miter"/>
   </g>
   <g id="line2d_1">
    <path d="M 71.725824 341.883218 
L 387.411717 341.883218 
" clip-path="url(#pa4ee07bb34)" style="fill: none; stroke: #000000; stroke-width: 2.5; stroke-linecap: square"/>
   </g>
   <g id="line2d_2">
    <path d="M 387.411717 341.883218 
L 387.411717 26.197325 
" clip-path="url(#pa4ee07bb34)" style="fill: none; stroke: #000000; stroke-width: 2.5; stroke-linecap: square"/>
   </g>
   <g id="line2d_3">
    <path d="M 387.411717 26.197325 
L 71.725824 26.197325 
" clip-path="url(#pa4ee07bb34)" style="fill: none; stroke: #000000; stroke-width: 2.5; stroke-linecap: square"/>
   </g>
   <g id="line2d_4">
    <path d="M 71.725824 26.197325 
L 71.725824 341.883218 
" clip-path="url(#pa4ee07bb34)" style="fill: none; stroke: #000000; stroke-width: 2.5; stroke-linecap: square"/>
   </g>
   <g id="line2d_5">
    <path d="M 124.34014 341.883218 
L 124.34014 26.197325 
" clip-path="url(#pa4ee07bb34)" style="fill: none; stroke: #000000; stroke-width: 2.5; stroke-linecap: square"/>
   </g>
   <g id="line2d_6">
    <path d="M 176.954455 341.883218 
L 176.954455 26.197325 
" clip-path="url(#pa4ee07bb34)" style="fill: none; stroke: #000000; stroke-width: 2.5; stroke-linecap: square"/>
   </g>
   <g id="line2d_7">
    <path d="M 229.568771 341.883218 
L 229.568771 26.197325 
" clip-path="url(#pa4ee07bb34)" style="fill: none; stroke: #000000; stroke-width: 2.5; stroke-linecap: square"/>
   </g>
   <g id="line2d_8">
    <path d="M 282.183086 341.883218 
L 282.183086 26.197325 
" clip-path="url(#pa4ee07bb34)" style="fill: none; stroke: #000000; stroke-width: 2.5; stroke-linecap: square"/>
   </g>
   <g id="line2d_9">
    <path d="M 334.797402 341.883218 
L 334.797402 26.197325 
" clip-path="url(#pa4ee07bb34)" style="fill: none; stroke: #000000; stroke-width: 2.5; stroke-linecap: square"/>
   </g>
   <g id="line2d_10">
    <path d="M 71.725824 289.268902 
L 387.411717 289.268902 
" clip-path="url(#pa4ee07bb34)" style="fill: none; stroke: #000000; stroke-width: 2.5; stroke-linecap: square"/>
   </g>
   <g id="line2d_11">
    <path d="M 71.725824 236.654587 
L 387.411717 236.654587 
" clip-path="url(#pa4ee07bb34)" style="fill: none; stroke: #000000; stroke-width: 2.5; stroke-linecap: square"/>
   </g>
   <g id="line2d_12">
    <path d="M 71.725824 184.040271 
L 387.411717 184.040271 
" clip-path="url(#pa4ee07bb34)" style="fill: none; stroke: #000000; stroke-width: 2.5; stroke-linecap: square"/>
   </g>
   <g id="line2d_13">
    <path d="M 71.725824 131.425956 
L 387.411717 131.425956 
" clip-path="url(#pa4ee07bb34)" style="fill: none; stroke: #000000; stroke-width: 2.5; stroke-linecap: square"/>
   </g>
   <g id="line2d_14">
    <path d="M 71.725824 78.81164 
L 387.411717 78.81164 
" clip-path="url(#pa4ee07bb34)" style="fill: none; stroke: #000000; stroke-width: 2.5; stroke-linecap: square"/>
   </g>
   <g id="line2d_15">
    <path d="M 55.941529 341.883218 
L 55.941529 289.268902 
" clip-path="url(#pa4ee07bb34)" style="fill: none; stroke: #0072b2; stroke-width: 2.5; stroke-linecap: square"/>
   </g>
   <g id="line2d_16">
    <path d="M 71.725824 357.667513 
L 124.34014 357.667513 
" clip-path="url(#pa4ee07bb34)" style="fill: none; stroke: #0072b2; stroke-width: 2.5; stroke-linecap: square"/>
   </g>
   <g id="text_1">
    <!-- $1$ cm -->
    <g transform="translate(32.265088 340.021696) scale(0.24 -0.24)">
     <defs>
      <path id="CMR17-31" d="M 1702 4058 
C 1702 4192 1696 4192 1606 4192 
C 1357 3916 979 3827 621 3827 
C 602 3827 570 3827 563 3808 
C 557 3795 557 3782 557 3648 
C 755 3648 1088 3686 1344 3839 
L 1344 461 
C 1344 236 1331 160 781 160 
L 589 160 
L 589 0 
C 896 0 1216 0 1523 0 
C 1830 0 2150 0 2458 0 
L 2458 160 
L 2266 160 
C 1715 160 1702 230 1702 458 
L 1702 4058 
z
" transform="scale(0.015625)"/>
      <path id="CMSS17-63" d="M 2464 2541 
C 2464 2585 2170 2714 2093 2739 
C 1882 2816 1613 2816 1542 2816 
C 710 2816 211 2093 211 1363 
C 211 595 768 -64 1517 -64 
C 1946 -64 2253 76 2502 242 
L 2464 664 
C 2189 453 1869 337 1523 337 
C 1024 337 698 774 698 1369 
C 698 1831 909 2414 1549 2414 
C 1901 2414 2099 2343 2394 2145 
L 2464 2541 
z
" transform="scale(0.015625)"/>
      <path id="CMSS17-6d" d="M 4288 1877 
C 4288 2308 4179 2816 3462 2816 
C 2982 2816 2694 2516 2566 2331 
C 2451 2670 2182 2816 1798 2816 
C 1363 2816 1088 2568 941 2389 
L 941 2758 
L 474 2758 
L 474 0 
L 960 0 
L 960 1559 
C 960 1939 1101 2428 1555 2428 
C 2138 2428 2138 2016 2138 1829 
L 2138 0 
L 2624 0 
L 2624 1559 
C 2624 1939 2765 2428 3219 2428 
C 3802 2428 3802 2016 3802 1829 
L 3802 0 
L 4288 0 
L 4288 1877 
z
" transform="scale(0.015625)"/>
     </defs>
     <use xlink:href="#CMR17-31" transform="scale(0.996264)"/>
     <use xlink:href="#CMSS17-63" transform="translate(76.91959 0) scale(0.996264)"/>
     <use xlink:href="#CMSS17-6d" transform="translate(118.558412 0) scale(0.996264)"/>
    </g>
   </g>
   <g id="text_2">
    <!-- $1$ cm -->
    <g transform="translate(105.925129 413.681737) scale(0.24 -0.24)">
     <use xlink:href="#CMR17-31" transform="scale(0.996264)"/>
     <use xlink:href="#CMSS17-63" transform="translate(76.91959 0) scale(0.996264)"/>
     <use xlink:href="#CMSS17-6d" transform="translate(118.558412 0) scale(0.996264)"/>
    </g>
   </g>
   <g id="text_3">
    <!-- $s = 6$ cm -->
    <g transform="translate(27.003656 208.485907) scale(0.24 -0.24)">
     <defs>
      <path id="CMMI12-73" d="M 1459 1280 
C 1568 1261 1741 1223 1779 1216 
C 1862 1192 2150 1090 2150 783 
C 2150 586 1971 70 1229 70 
C 1094 70 614 70 486 436 
C 742 404 870 603 870 745 
C 870 880 781 950 653 950 
C 512 950 326 841 326 552 
C 326 173 710 -64 1222 -64 
C 2195 -64 2483 651 2483 984 
C 2483 1079 2483 1258 2278 1462 
C 2118 1616 1965 1648 1619 1718 
C 1446 1756 1171 1814 1171 2101 
C 1171 2229 1286 2689 1894 2689 
C 2163 2689 2426 2589 2490 2368 
C 2208 2368 2195 2125 2195 2119 
C 2195 1984 2317 1946 2374 1946 
C 2464 1946 2643 2015 2643 2281 
C 2643 2545 2400 2816 1901 2816 
C 1062 2816 838 2160 838 1899 
C 838 1414 1312 1312 1459 1280 
z
" transform="scale(0.015625)"/>
      <path id="CMR17-3d" d="M 4115 2017 
C 4211 2017 4307 2017 4307 2125 
C 4307 2240 4198 2240 4090 2240 
L 512 2240 
C 403 2240 294 2240 294 2125 
C 294 2017 390 2017 486 2017 
L 4115 2017 
z
M 4090 896 
C 4198 896 4307 896 4307 1011 
C 4307 1119 4211 1119 4115 1119 
L 486 1119 
C 390 1119 294 1119 294 1011 
C 294 896 403 896 512 896 
L 4090 896 
z
" transform="scale(0.015625)"/>
      <path id="CMR17-36" d="M 678 2176 
C 678 3690 1395 4032 1811 4032 
C 1946 4032 2272 4009 2400 3776 
C 2298 3776 2106 3776 2106 3553 
C 2106 3381 2246 3323 2336 3323 
C 2394 3323 2566 3348 2566 3560 
C 2566 3954 2246 4179 1805 4179 
C 1043 4179 243 3390 243 1984 
C 243 253 966 -128 1478 -128 
C 2099 -128 2688 427 2688 1283 
C 2688 2081 2170 2662 1517 2662 
C 1126 2662 838 2407 678 1960 
L 678 2176 
z
M 1478 25 
C 691 25 691 1200 691 1436 
C 691 1896 909 2560 1504 2560 
C 1613 2560 1926 2560 2138 2120 
C 2253 1870 2253 1609 2253 1289 
C 2253 944 2253 690 2118 434 
C 1978 171 1773 25 1478 25 
z
" transform="scale(0.015625)"/>
     </defs>
     <use xlink:href="#CMMI12-73" transform="scale(0.996264)"/>
     <use xlink:href="#CMR17-3d" transform="translate(73.624056 0) scale(0.996264)"/>
     <use xlink:href="#CMR17-36" transform="translate(173.012853 0) scale(0.996264)"/>
     <use xlink:href="#CMSS17-63" transform="translate(249.932443 0) scale(0.996264)"/>
     <use xlink:href="#CMSS17-6d" transform="translate(291.571265 0) scale(0.996264)"/>
    </g>
   </g>
   <g id="text_4">
    <!-- $s = 6$ cm -->
    <g transform="translate(237.460918 418.943169) scale(0.24 -0.24)">
     <use xlink:href="#CMMI12-73" transform="scale(0.996264)"/>
     <use xlink:href="#CMR17-3d" transform="translate(73.624056 0) scale(0.996264)"/>
     <use xlink:href="#CMR17-36" transform="translate(173.012853 0) scale(0.996264)"/>
     <use xlink:href="#CMSS17-63" transform="translate(249.932443 0) scale(0.996264)"/>
     <use xlink:href="#CMSS17-6d" transform="translate(291.571265 0) scale(0.996264)"/>
    </g>
   </g>
   <g id="text_5">
    <!-- $1$ cm$^2$ -->
    <g transform="translate(69.095108 366.328853) scale(0.24 -0.24)">
     <defs>
      <path id="CMR17-32" d="M 2669 989 
L 2554 989 
C 2490 536 2438 459 2413 420 
C 2381 369 1920 369 1830 369 
L 602 369 
C 832 619 1280 1072 1824 1597 
C 2214 1967 2669 2402 2669 3035 
C 2669 3790 2067 4224 1395 4224 
C 691 4224 262 3604 262 3030 
C 262 2780 448 2748 525 2748 
C 589 2748 781 2787 781 3010 
C 781 3207 614 3264 525 3264 
C 486 3264 448 3258 422 3245 
C 544 3790 915 4058 1306 4058 
C 1862 4058 2227 3617 2227 3035 
C 2227 2479 1901 2000 1536 1584 
L 262 146 
L 262 0 
L 2515 0 
L 2669 989 
z
" transform="scale(0.015625)"/>
     </defs>
     <use xlink:href="#CMR17-31" transform="scale(0.996264)"/>
     <use xlink:href="#CMSS17-63" transform="translate(76.91959 0) scale(0.996264)"/>
     <use xlink:href="#CMSS17-6d" transform="translate(118.558412 0) scale(0.996264)"/>
     <use xlink:href="#CMR17-32" transform="translate(192.787666 36.153639) scale(0.697382)"/>
    </g>
   </g>
  </g>
 </g>
 <defs>
  <clipPath id="pa4ee07bb34">
   <rect x="22.153247" y="10.8" width="399.046753" height="362.264837"/>
  </clipPath>
 </defs>
</svg>
