<?xml version="1.0" encoding="utf-8" standalone="no"?>
<!DOCTYPE svg PUBLIC "-//W3C//DTD SVG 1.1//EN"
  "http://www.w3.org/Graphics/SVG/1.1/DTD/svg11.dtd">
<svg xmlns:xlink="http://www.w3.org/1999/xlink" width="432pt" height="432pt" viewBox="0 0 432 432" xmlns="http://www.w3.org/2000/svg" version="1.1">
 <metadata>
  <rdf:RDF xmlns:dc="http://purl.org/dc/elements/1.1/" xmlns:cc="http://creativecommons.org/ns#" xmlns:rdf="http://www.w3.org/1999/02/22-rdf-syntax-ns#">
   <cc:Work>
    <dc:type rdf:resource="http://purl.org/dc/dcmitype/StillImage"/>
    <dc:date>2026-02-18T14:36:32.893254</dc:date>
    <dc:format>image/svg+xml</dc:format>
    <dc:creator>
     <cc:Agent>
      <dc:title>Matplotlib v3.9.1, https://matplotlib.org/</dc:title>
     </cc:Agent>
    </dc:creator>
   </cc:Work>
  </rdf:RDF>
 </metadata>
 <defs>
  <style type="text/css">*{stroke-linejoin: round; stroke-linecap: butt}</style>
 </defs>
 <g id="figure_1">
  <g id="patch_1">
   <path d="M 0 432 
L 432 432 
L 432 0 
L 0 0 
L 0 432 
z
" style="fill: none"/>
  </g>
  <g id="axes_1">
   <g id="line2d_1">
    <path d="M 28.243211 403.756789 
L 403.756789 28.243211 
" clip-path="url(#p08704abed8)" style="fill: none; stroke: #000000; stroke-width: 2.5; stroke-linecap: square"/>
   </g>
   <g id="line2d_2">
    <path d="M 258.671997 216 
L 258.560924 212.923138 
L 258.228283 209.862294 
L 257.675806 206.833402 
L 256.906369 203.85223 
L 255.923978 200.934299 
L 254.733746 198.094798 
L 253.341871 195.348509 
L 251.755597 192.70973 
L 249.983183 190.192198 
L 248.033857 187.809019 
L 246.173659 185.826341 
L 246.173659 185.826341 
" clip-path="url(#p08704abed8)" style="fill: none; stroke: #dc5e8b; stroke-linecap: square"/>
   </g>
   <g id="line2d_3">
    <path d="M 190.396802 216 
L 190.507197 218.37503 
L 190.837431 220.729578 
L 191.384657 223.04334 
L 192.144154 225.296364 
L 193.109374 227.46922 
L 194.271993 229.543171 
L 195.621984 231.500331 
L 197.147707 233.323822 
L 197.895805 234.104195 
L 197.895805 234.104195 
" clip-path="url(#p08704abed8)" style="fill: none; stroke: #0072b2; stroke-linecap: square"/>
   </g>
   <g id="line2d_4">
    <path d="M 173.328003 301.343995 
L 173.21693 298.267133 
L 172.884289 295.206289 
L 172.331812 292.177397 
L 171.562374 289.196225 
L 170.579983 286.278293 
L 169.389751 283.438792 
L 167.997876 280.692504 
L 166.411602 278.053725 
L 164.639188 275.536193 
L 162.689862 273.153014 
L 160.829664 271.170336 
L 160.829664 271.170336 
" clip-path="url(#p08704abed8)" style="fill: none; stroke: #dc5e8b; stroke-linecap: square"/>
   </g>
   <g id="line2d_5">
    <path d="M 105.052807 301.343995 
L 105.163202 303.719024 
L 105.493436 306.073573 
L 106.040662 308.387335 
L 106.800159 310.640359 
L 107.765379 312.813215 
L 108.927998 314.887165 
L 110.277989 316.844325 
L 111.803712 318.667817 
L 112.55181 319.44819 
L 112.55181 319.44819 
" clip-path="url(#p08704abed8)" style="fill: none; stroke: #0072b2; stroke-linecap: square"/>
   </g>
   <g id="LineCollection_1">
    <path d="M 45.31201 301.343995 
L 386.68799 301.343995 
" clip-path="url(#p08704abed8)" style="fill: none; stroke: #000000; stroke-width: 2.5"/>
   </g>
   <g id="LineCollection_2">
    <path d="M 45.31201 216 
L 386.68799 216 
" clip-path="url(#p08704abed8)" style="fill: none; stroke: #000000; stroke-width: 2.5"/>
   </g>
   <g id="text_1">
    <!-- $a$ -->
    <g transform="translate(153.357508 354.914953) scale(0.2 -0.2)">
     <defs>
      <path id="CMMI12-61" d="M 1926 760 
C 1894 651 1894 639 1805 517 
C 1664 338 1382 64 1082 64 
C 819 64 672 300 672 677 
C 672 1028 870 1743 992 2012 
C 1210 2459 1510 2689 1760 2689 
C 2182 2689 2266 2165 2266 2114 
C 2266 2108 2246 2024 2240 2012 
L 1926 760 
z
M 2336 2395 
C 2266 2561 2093 2816 1760 2816 
C 1037 2816 256 1884 256 939 
C 256 307 627 -64 1062 -64 
C 1414 -64 1715 211 1894 422 
C 1958 45 2259 -64 2451 -64 
C 2643 -64 2797 51 2912 281 
C 3014 498 3104 888 3104 913 
C 3104 945 3078 971 3040 971 
C 2982 971 2976 939 2950 843 
C 2854 466 2733 64 2470 64 
C 2285 64 2272 230 2272 358 
C 2272 505 2291 575 2349 824 
C 2394 984 2426 1124 2477 1309 
C 2714 2267 2771 2497 2771 2535 
C 2771 2625 2701 2695 2605 2695 
C 2400 2695 2349 2472 2336 2395 
z
" transform="scale(0.015625)"/>
     </defs>
     <use xlink:href="#CMMI12-61" transform="scale(0.996264)"/>
    </g>
   </g>
   <g id="text_2">
    <!-- $a$ -->
    <g transform="translate(119.21991 286.639757) scale(0.2 -0.2)">
     <use xlink:href="#CMMI12-61" transform="scale(0.996264)"/>
    </g>
   </g>
   <g id="text_3">
    <!-- $b$ -->
    <g transform="translate(281.3735 218.364561) scale(0.2 -0.2)">
     <defs>
      <path id="CMMI12-62" d="M 1478 4257 
C 1485 4283 1498 4321 1498 4352 
C 1498 4416 1434 4416 1421 4416 
C 1414 4416 1184 4393 1069 4377 
C 960 4377 864 4358 749 4358 
C 595 4345 550 4339 550 4224 
C 550 4160 614 4160 678 4160 
C 1005 4160 1005 4103 1005 4040 
C 1005 3996 954 3811 928 3696 
L 774 3085 
C 710 2831 346 1387 320 1272 
C 288 1114 288 1005 288 922 
C 288 274 653 -64 1069 -64 
C 1811 -64 2579 888 2579 1814 
C 2579 2401 2246 2816 1766 2816 
C 1434 2816 1133 2542 1011 2414 
L 1478 4257 
z
M 1075 64 
C 870 64 646 217 646 715 
C 646 926 666 1047 781 1494 
C 800 1577 902 1986 928 2069 
C 941 2120 1318 2689 1754 2689 
C 2035 2689 2163 2408 2163 2076 
C 2163 1769 1984 1047 1824 715 
C 1664 370 1370 64 1075 64 
z
" transform="scale(0.015625)"/>
     </defs>
     <use xlink:href="#CMMI12-62" transform="scale(0.996264)"/>
    </g>
   </g>
   <g id="text_4">
    <!-- $b$ -->
    <g transform="translate(166.159107 261.036559) scale(0.2 -0.2)">
     <use xlink:href="#CMMI12-62" transform="scale(0.996264)"/>
    </g>
   </g>
  </g>
 </g>
 <defs>
  <clipPath id="p08704abed8">
   <rect x="10.8" y="10.8" width="410.4" height="410.4"/>
  </clipPath>
 </defs>
</svg>
