<?xml version="1.0" encoding="utf-8" standalone="no"?>
<!DOCTYPE svg PUBLIC "-//W3C//DTD SVG 1.1//EN"
  "http://www.w3.org/Graphics/SVG/1.1/DTD/svg11.dtd">
<svg xmlns:xlink="http://www.w3.org/1999/xlink" width="432pt" height="432pt" viewBox="0 0 432 432" xmlns="http://www.w3.org/2000/svg" version="1.1">
 <metadata>
  <rdf:RDF xmlns:dc="http://purl.org/dc/elements/1.1/" xmlns:cc="http://creativecommons.org/ns#" xmlns:rdf="http://www.w3.org/1999/02/22-rdf-syntax-ns#">
   <cc:Work>
    <dc:type rdf:resource="http://purl.org/dc/dcmitype/StillImage"/>
    <dc:date>2026-03-02T22:50:25.947625</dc:date>
    <dc:format>image/svg+xml</dc:format>
    <dc:creator>
     <cc:Agent>
      <dc:title>Matplotlib v3.9.1, https://matplotlib.org/</dc:title>
     </cc:Agent>
    </dc:creator>
   </cc:Work>
  </rdf:RDF>
 </metadata>
 <defs>
  <style type="text/css">*{stroke-linejoin: round; stroke-linecap: butt}</style>
 </defs>
 <g id="figure_1">
  <g id="patch_1">
   <path d="M 0 432 
L 432 432 
L 432 0 
L 0 0 
L 0 432 
z
" style="fill: none"/>
  </g>
  <g id="axes_1">
   <g id="line2d_1">
    <path d="M 98.317076 352.080442 
L 98.317076 57.873133 
" clip-path="url(#p7bc3ed4975)" style="fill: none; stroke: #000000; stroke-width: 2.5; stroke-linecap: square"/>
   </g>
   <g id="line2d_2">
    <path d="M 333.682924 352.080442 
L 333.682924 57.873133 
" clip-path="url(#p7bc3ed4975)" style="fill: none; stroke: #000000; stroke-width: 2.5; stroke-linecap: square"/>
   </g>
   <g id="line2d_3">
    <path d="M 216 381.501173 
L 216 57.873133 
" clip-path="url(#p7bc3ed4975)" style="fill: none; stroke: #0072b2; stroke-width: 2.5; stroke-linecap: square"/>
   </g>
   <g id="line2d_4">
    <path d="M 216 352.080442 
L 333.682924 352.080442 
" clip-path="url(#p7bc3ed4975)" style="fill: none; stroke: #0072b2; stroke-width: 2.5; stroke-linecap: square"/>
   </g>
   <g id="line2d_5">
    <path d="M 333.682924 352.080442 
L 333.574176 350.815933 
L 333.248133 349.553761 
L 332.705398 348.296259 
L 331.821096 346.867812 
L 330.657226 345.451948 
L 329.216596 344.052083 
L 327.269429 342.500566 
L 324.982356 340.978313 
L 322.362364 339.489975 
L 319.070569 337.881568 
L 315.39008 336.326708 
L 310.909211 334.685198 
L 305.995292 333.123059 
L 300.16716 331.517795 
L 293.882026 330.024178 
L 287.174019 328.650321 
L 279.472103 327.305754 
L 271.365753 326.119048 
L 262.906622 325.097764 
L 253.464126 324.190357 
L 243.744801 323.489036 
L 233.820464 322.998982 
L 223.764448 322.723816 
L 213.651058 322.665573 
L 203.555026 322.824681 
L 193.550952 323.199966 
L 183.712759 323.788654 
L 174.113142 324.586396 
L 164.823035 325.587296 
L 156.533689 326.692172 
L 148.623254 327.958817 
L 141.142131 329.379162 
L 134.137991 330.944155 
L 128.134638 332.508542 
L 122.608365 334.179197 
L 117.987394 335.796248 
L 113.813631 337.487601 
L 110.423441 339.083182 
L 107.431393 340.727777 
L 105.088321 342.244698 
L 103.084062 343.791665 
L 101.424738 345.363952 
L 100.243481 346.778916 
L 99.341637 348.206678 
L 98.783457 349.463757 
L 98.441912 350.725673 
L 98.317631 351.990093 
L 98.410846 353.254679 
L 98.721383 354.517096 
L 99.248668 355.775009 
L 99.991728 357.026094 
L 101.103373 358.444579 
L 102.492355 359.847702 
L 104.382265 361.403638 
L 106.613144 362.931094 
L 109.178178 364.425403 
L 112.410563 366.041323 
L 116.033597 367.604594 
L 120.453785 369.256354 
L 125.309928 370.829745 
L 131.078658 372.448365 
L 137.308483 373.956393 
L 143.965578 375.345643 
L 151.617619 376.707891 
L 159.679893 377.913217 
L 168.101029 378.953941 
L 177.509686 379.883057 
L 187.202755 380.606734 
L 197.108612 381.119625 
L 207.154061 381.41794 
L 217.264874 381.499474 
L 227.366341 381.363625 
L 237.38382 381.011398 
L 247.24329 380.445394 
L 256.871898 379.669796 
L 266.198495 378.690334 
L 275.154165 377.514248 
L 283.080123 376.253681 
L 290.578657 374.839087 
L 297.601988 373.279478 
L 303.62453 371.719708 
L 309.171298 370.053303 
L 313.812112 368.439808 
L 318.006631 366.751668 
L 321.416406 365.158697 
L 324.428641 363.516407 
L 327.031977 361.830989 
L 329.017224 360.282491 
L 330.657226 358.708937 
L 331.821096 357.293072 
L 332.705398 355.864626 
L 333.248133 354.607123 
L 333.574176 353.344951 
L 333.682924 352.080442 
L 333.682924 352.080442 
" clip-path="url(#p7bc3ed4975)" style="fill: none; stroke: #000000; stroke-width: 2.5; stroke-linecap: square"/>
   </g>
   <g id="line2d_6">
    <path d="M 333.682924 57.873133 
L 333.574176 56.608624 
L 333.248133 55.346452 
L 332.705398 54.08895 
L 331.821096 52.660503 
L 330.657226 51.244638 
L 329.216596 49.844774 
L 327.269429 48.293256 
L 324.982356 46.771003 
L 322.362364 45.282665 
L 319.070569 43.674259 
L 315.39008 42.119398 
L 310.909211 40.477889 
L 305.995292 38.91575 
L 300.16716 37.310485 
L 293.882026 35.816869 
L 287.174019 34.443011 
L 279.472103 33.098445 
L 271.365753 31.911739 
L 262.906622 30.890454 
L 253.464126 29.983048 
L 243.744801 29.281726 
L 233.820464 28.791672 
L 223.764448 28.516507 
L 213.651058 28.458263 
L 203.555026 28.617372 
L 193.550952 28.992657 
L 183.712759 29.581345 
L 174.113142 30.379086 
L 164.823035 31.379987 
L 156.533689 32.484863 
L 148.623254 33.751508 
L 141.142131 35.171853 
L 134.137991 36.736846 
L 128.134638 38.301233 
L 122.608365 39.971888 
L 117.987394 41.588939 
L 113.813631 43.280291 
L 110.423441 44.875872 
L 107.431393 46.520468 
L 105.088321 48.037388 
L 103.084062 49.584355 
L 101.424738 51.156643 
L 100.243481 52.571607 
L 99.341637 53.999368 
L 98.783457 55.256448 
L 98.441912 56.518364 
L 98.317631 57.782783 
L 98.410846 59.04737 
L 98.721383 60.309786 
L 99.248668 61.567699 
L 99.991728 62.818784 
L 101.103373 64.237269 
L 102.492355 65.640393 
L 104.382265 67.196329 
L 106.613144 68.723785 
L 109.178178 70.218094 
L 112.410563 71.834014 
L 116.033597 73.397285 
L 120.453785 75.049045 
L 125.309928 76.622435 
L 131.078658 78.241055 
L 137.308483 79.749084 
L 143.965578 81.138333 
L 151.617619 82.500582 
L 159.679893 83.705908 
L 168.101029 84.746632 
L 177.509686 85.675748 
L 187.202755 86.399425 
L 197.108612 86.912316 
L 207.154061 87.21063 
L 217.264874 87.292165 
L 227.366341 87.156316 
L 237.38382 86.804088 
L 247.24329 86.238084 
L 256.871898 85.462486 
L 266.198495 84.483025 
L 275.154165 83.306938 
L 283.080123 82.046372 
L 290.578657 80.631778 
L 297.601988 79.072169 
L 303.62453 77.512399 
L 309.171298 75.845994 
L 313.812112 74.232498 
L 318.006631 72.544359 
L 321.416406 70.951388 
L 324.428641 69.309097 
L 327.031977 67.62368 
L 329.017224 66.075182 
L 330.657226 64.501628 
L 331.821096 63.085763 
L 332.705398 61.657316 
L 333.248133 60.399814 
L 333.574176 59.137642 
L 333.682924 57.873133 
L 333.682924 57.873133 
" clip-path="url(#p7bc3ed4975)" style="fill: none; stroke: #000000; stroke-width: 2.5; stroke-linecap: square"/>
   </g>
   <g id="text_1">
    <!-- $h$ -->
    <g transform="translate(175.791668 249.964289) scale(0.24 -0.24)">
     <defs>
      <path id="CMMI12-68" d="M 1798 4257 
C 1805 4283 1818 4321 1818 4352 
C 1818 4416 1754 4416 1741 4416 
C 1734 4416 1421 4388 1389 4380 
C 1280 4373 1184 4358 1069 4358 
C 909 4345 864 4339 864 4224 
C 864 4160 915 4160 1005 4160 
C 1318 4160 1325 4103 1325 4040 
C 1325 4002 1312 3951 1306 3932 
L 378 248 
C 352 152 352 140 352 101 
C 352 -38 461 -64 525 -64 
C 634 -64 717 19 749 89 
L 1037 1245 
C 1069 1386 1107 1520 1139 1660 
C 1210 1929 1210 1935 1331 2120 
C 1453 2305 1741 2689 2234 2689 
C 2490 2689 2579 2497 2579 2242 
C 2579 1884 2330 1188 2189 805 
C 2131 651 2099 568 2099 453 
C 2099 166 2298 -64 2605 -64 
C 3200 -64 3424 875 3424 913 
C 3424 945 3398 971 3360 971 
C 3302 971 3296 952 3264 843 
C 3117 332 2880 64 2624 64 
C 2560 64 2458 64 2458 269 
C 2458 436 2534 640 2560 710 
C 2675 1018 2963 1773 2963 2145 
C 2963 2528 2739 2816 2253 2816 
C 1888 2816 1568 2644 1306 2312 
L 1798 4257 
z
" transform="scale(0.015625)"/>
     </defs>
     <use xlink:href="#CMMI12-68" transform="scale(0.996264)"/>
    </g>
   </g>
   <g id="text_2">
    <!-- $r$ -->
    <g transform="translate(283.667681 416.681765) scale(0.24 -0.24)">
     <defs>
      <path id="CMMI12-72" d="M 2490 2612 
C 2291 2574 2189 2433 2189 2293 
C 2189 2139 2310 2088 2400 2088 
C 2579 2088 2726 2242 2726 2433 
C 2726 2638 2528 2816 2208 2816 
C 1952 2816 1658 2701 1389 2312 
C 1344 2650 1088 2816 832 2816 
C 582 2816 454 2625 378 2484 
C 269 2254 173 1871 173 1839 
C 173 1814 198 1782 243 1782 
C 294 1782 301 1788 339 1935 
C 435 2318 557 2689 813 2689 
C 966 2689 1011 2580 1011 2395 
C 1011 2254 947 2005 902 1807 
L 723 1118 
C 698 996 627 709 595 594 
C 550 428 480 128 480 96 
C 480 6 550 -64 646 -64 
C 717 -64 838 -19 877 109 
C 896 160 1133 1124 1171 1271 
C 1203 1411 1242 1546 1274 1686 
C 1299 1775 1325 1878 1344 1961 
C 1363 2018 1536 2331 1696 2472 
C 1773 2542 1939 2689 2202 2689 
C 2304 2689 2406 2670 2490 2612 
z
" transform="scale(0.015625)"/>
     </defs>
     <use xlink:href="#CMMI12-72" transform="scale(0.996264)"/>
    </g>
   </g>
  </g>
 </g>
 <defs>
  <clipPath id="p7bc3ed4975">
   <rect x="10.8" y="10.8" width="410.4" height="388.35361"/>
  </clipPath>
 </defs>
</svg>
