<?xml version="1.0" encoding="utf-8" standalone="no"?>
<!DOCTYPE svg PUBLIC "-//W3C//DTD SVG 1.1//EN"
  "http://www.w3.org/Graphics/SVG/1.1/DTD/svg11.dtd">
<svg xmlns:xlink="http://www.w3.org/1999/xlink" width="432pt" height="432pt" viewBox="0 0 432 432" xmlns="http://www.w3.org/2000/svg" version="1.1">
 <metadata>
  <rdf:RDF xmlns:dc="http://purl.org/dc/elements/1.1/" xmlns:cc="http://creativecommons.org/ns#" xmlns:rdf="http://www.w3.org/1999/02/22-rdf-syntax-ns#">
   <cc:Work>
    <dc:type rdf:resource="http://purl.org/dc/dcmitype/StillImage"/>
    <dc:date>2026-02-20T19:11:07.620922</dc:date>
    <dc:format>image/svg+xml</dc:format>
    <dc:creator>
     <cc:Agent>
      <dc:title>Matplotlib v3.9.1, https://matplotlib.org/</dc:title>
     </cc:Agent>
    </dc:creator>
   </cc:Work>
  </rdf:RDF>
 </metadata>
 <defs>
  <style type="text/css">*{stroke-linejoin: round; stroke-linecap: butt}</style>
 </defs>
 <g id="figure_1">
  <g id="patch_1">
   <path d="M 0 432 
L 432 432 
L 432 0 
L 0 0 
L 0 432 
z
" style="fill: none"/>
  </g>
  <g id="axes_1">
   <g id="patch_2">
    <path d="M 27.664226 261.993343 
L 150.313141 261.993343 
L 150.313141 170.006657 
L 27.664226 170.006657 
z
" clip-path="url(#p89f2fefc47)" style="fill: #0072b2; opacity: 0.2; stroke: #0072b2; stroke-linejoin: miter"/>
   </g>
   <g id="patch_3">
    <path d="M 303.624284 261.993343 
L 364.948742 261.993343 
L 364.948742 200.668886 
L 303.624284 200.668886 
z
" clip-path="url(#p89f2fefc47)" style="fill: #0072b2; opacity: 0.2; stroke: #0072b2; stroke-linejoin: miter"/>
   </g>
   <g id="line2d_1">
    <path d="M 27.664226 261.993343 
L 150.313141 261.993343 
" clip-path="url(#p89f2fefc47)" style="fill: none; stroke: #000000; stroke-width: 2.5; stroke-linecap: square"/>
   </g>
   <g id="line2d_2">
    <path d="M 150.313141 261.993343 
L 150.313141 170.006657 
" clip-path="url(#p89f2fefc47)" style="fill: none; stroke: #000000; stroke-width: 2.5; stroke-linecap: square"/>
   </g>
   <g id="line2d_3">
    <path d="M 150.313141 170.006657 
L 27.664226 170.006657 
" clip-path="url(#p89f2fefc47)" style="fill: none; stroke: #000000; stroke-width: 2.5; stroke-linecap: square"/>
   </g>
   <g id="line2d_4">
    <path d="M 27.664226 170.006657 
L 27.664226 261.993343 
" clip-path="url(#p89f2fefc47)" style="fill: none; stroke: #000000; stroke-width: 2.5; stroke-linecap: square"/>
   </g>
   <g id="line2d_5">
    <path d="M 303.624284 261.993343 
L 364.948742 261.993343 
" clip-path="url(#p89f2fefc47)" style="fill: none; stroke: #000000; stroke-width: 2.5; stroke-linecap: square"/>
   </g>
   <g id="line2d_6">
    <path d="M 364.948742 261.993343 
L 364.948742 200.668886 
" clip-path="url(#p89f2fefc47)" style="fill: none; stroke: #000000; stroke-width: 2.5; stroke-linecap: square"/>
   </g>
   <g id="line2d_7">
    <path d="M 364.948742 200.668886 
L 303.624284 200.668886 
" clip-path="url(#p89f2fefc47)" style="fill: none; stroke: #000000; stroke-width: 2.5; stroke-linecap: square"/>
   </g>
   <g id="line2d_8">
    <path d="M 303.624284 200.668886 
L 303.624284 261.993343 
" clip-path="url(#p89f2fefc47)" style="fill: none; stroke: #000000; stroke-width: 2.5; stroke-linecap: square"/>
   </g>
   <g id="text_1">
    <!-- 10 cm × 10 cm -->
    <g transform="translate(93.617883 300.808337) scale(0.14 -0.14)">
     <defs>
      <path id="CMSS17-31" d="M 1818 4288 
L 1696 4288 
C 1350 3940 947 3890 538 3890 
L 538 3520 
C 723 3520 1024 3520 1325 3667 
L 1325 369 
L 570 369 
L 570 0 
L 2573 0 
L 2573 369 
L 1818 369 
L 1818 4288 
z
" transform="scale(0.015625)"/>
      <path id="CMSS17-30" d="M 2758 2044 
C 2758 2405 2752 3077 2490 3596 
C 2227 4096 1805 4229 1504 4229 
C 1069 4229 698 3975 506 3570 
C 301 3146 243 2709 243 2044 
C 243 1589 262 1031 493 543 
C 755 5 1197 -128 1498 -128 
C 1894 -128 2278 81 2496 518 
C 2720 974 2758 1474 2758 2044 
z
M 1498 261 
C 1011 261 864 811 819 995 
C 742 1310 730 1614 730 2114 
C 730 2506 730 2948 851 3297 
C 998 3701 1254 3840 1498 3840 
C 1971 3840 2125 3372 2176 3208 
C 2272 2873 2272 2481 2272 2114 
C 2272 1526 2272 261 1498 261 
z
" transform="scale(0.015625)"/>
      <path id="CMSS17-63" d="M 2464 2541 
C 2464 2585 2170 2714 2093 2739 
C 1882 2816 1613 2816 1542 2816 
C 710 2816 211 2093 211 1363 
C 211 595 768 -64 1517 -64 
C 1946 -64 2253 76 2502 242 
L 2464 664 
C 2189 453 1869 337 1523 337 
C 1024 337 698 774 698 1369 
C 698 1831 909 2414 1549 2414 
C 1901 2414 2099 2343 2394 2145 
L 2464 2541 
z
" transform="scale(0.015625)"/>
      <path id="CMSS17-6d" d="M 4288 1877 
C 4288 2308 4179 2816 3462 2816 
C 2982 2816 2694 2516 2566 2331 
C 2451 2670 2182 2816 1798 2816 
C 1363 2816 1088 2568 941 2389 
L 941 2758 
L 474 2758 
L 474 0 
L 960 0 
L 960 1559 
C 960 1939 1101 2428 1555 2428 
C 2138 2428 2138 2016 2138 1829 
L 2138 0 
L 2624 0 
L 2624 1559 
C 2624 1939 2765 2428 3219 2428 
C 3802 2428 3802 2016 3802 1829 
L 3802 0 
L 4288 0 
L 4288 1877 
z
" transform="scale(0.015625)"/>
      <path id="SFSS3583-d6" d="M 922 3040 
C 877 3027 851 2989 851 2943 
C 851 2866 934 2807 979 2762 
L 2016 1716 
C 2035 1697 2061 1676 2061 1651 
L 2061 1644 
C 2054 1612 2010 1580 1990 1560 
L 947 507 
C 909 468 845 417 845 359 
C 845 307 890 256 941 256 
C 1018 256 1094 359 1139 404 
L 2157 1428 
C 2176 1448 2202 1480 2234 1480 
L 2240 1480 
C 2272 1467 2304 1422 2330 1396 
L 3405 314 
C 3437 281 3469 256 3514 256 
C 3565 256 3610 314 3610 359 
C 3610 417 3552 462 3514 500 
L 2445 1577 
C 2426 1596 2394 1622 2394 1648 
L 2394 1654 
C 2400 1673 2419 1693 2432 1706 
L 3475 2756 
C 3520 2801 3610 2859 3610 2936 
C 3610 2994 3565 3040 3507 3040 
C 3450 3040 3405 2989 3366 2950 
L 2317 1893 
C 2298 1874 2266 1822 2227 1822 
L 2221 1822 
C 2189 1829 2157 1874 2138 1893 
L 1056 2982 
C 1024 3014 992 3040 947 3040 
L 922 3040 
z
" transform="scale(0.015625)"/>
     </defs>
     <use xlink:href="#CMSS17-31" transform="scale(0.996264)"/>
     <use xlink:href="#CMSS17-30" transform="translate(46.843624 0) scale(0.996264)"/>
     <use xlink:href="#CMSS17-63" transform="translate(124.91636 0) scale(0.996264)"/>
     <use xlink:href="#CMSS17-6d" transform="translate(166.555182 0) scale(0.996264)"/>
     <use xlink:href="#SFSS3583-d6" transform="translate(272.013549 0) scale(0.996264)"/>
     <use xlink:href="#CMSS17-31" transform="translate(372.683066 0) scale(0.996264)"/>
     <use xlink:href="#CMSS17-30" transform="translate(419.526689 0) scale(0.996264)"/>
     <use xlink:href="#CMSS17-63" transform="translate(497.599426 0) scale(0.996264)"/>
     <use xlink:href="#CMSS17-6d" transform="translate(539.238248 0) scale(0.996264)"/>
    </g>
   </g>
   <g id="text_2">
    <!-- konvertert til dm -->
    <g transform="translate(216.266798 230.285211) scale(0.14 -0.14)">
     <defs>
      <path id="CMSS17-6b" d="M 1696 1688 
L 2688 2739 
L 2074 2739 
L 954 1554 
L 954 4416 
L 480 4416 
L 480 0 
L 947 0 
L 947 892 
L 1376 1344 
L 2278 0 
L 2822 0 
L 1696 1688 
z
" transform="scale(0.015625)"/>
      <path id="CMSS17-6f" d="M 2829 1356 
C 2829 2176 2221 2816 1504 2816 
C 768 2816 173 2157 173 1356 
C 173 544 787 -64 1498 -64 
C 2227 -64 2829 563 2829 1356 
z
M 1504 337 
C 1050 337 659 709 659 1408 
C 659 2151 1114 2427 1498 2427 
C 1914 2427 2342 2126 2342 1408 
C 2342 683 1926 337 1504 337 
z
" transform="scale(0.015625)"/>
      <path id="CMSS17-6e" d="M 2618 1877 
C 2618 2283 2522 2816 1798 2816 
C 1389 2816 1120 2606 941 2389 
L 941 2758 
L 474 2758 
L 474 0 
L 960 0 
L 960 1559 
C 960 1964 1114 2428 1549 2428 
C 2112 2428 2131 2048 2131 1829 
L 2131 0 
L 2618 0 
L 2618 1877 
z
" transform="scale(0.015625)"/>
      <path id="CMSS17-76" d="M 2675 2752 
L 2176 2752 
L 1747 1556 
C 1613 1165 1421 627 1389 352 
L 1382 352 
C 1370 468 1318 634 1286 749 
C 1248 890 1197 1056 1158 1172 
L 595 2752 
L 83 2752 
L 1094 0 
L 1664 0 
L 2675 2752 
z
" transform="scale(0.015625)"/>
      <path id="CMSS17-65" d="M 2502 1377 
C 2502 1590 2490 2003 2285 2345 
C 2061 2713 1696 2816 1421 2816 
C 755 2816 192 2188 192 1375 
C 192 582 774 -64 1510 -64 
C 1798 -64 2150 19 2470 248 
C 2470 274 2458 414 2451 420 
C 2451 433 2432 630 2432 656 
C 2125 407 1773 325 1517 325 
C 1107 325 666 667 646 1377 
L 2502 1377 
z
M 698 1728 
C 781 2084 1062 2421 1421 2421 
C 1517 2421 1965 2421 2080 1728 
L 698 1728 
z
" transform="scale(0.015625)"/>
      <path id="CMSS17-72" d="M 954 1363 
C 954 1965 1395 2368 1958 2368 
L 1958 2789 
C 1549 2789 1165 2585 934 2253 
L 934 2758 
L 480 2758 
L 480 0 
L 954 0 
L 954 1363 
z
" transform="scale(0.015625)"/>
      <path id="CMSS17-74" d="M 1069 2368 
L 1901 2368 
L 1901 2737 
L 1069 2737 
L 1069 3520 
L 614 3520 
L 614 2737 
L 109 2737 
L 109 2368 
L 602 2368 
L 602 749 
C 602 384 685 -64 1107 -64 
C 1427 -64 1722 25 2003 172 
L 1901 548 
C 1747 414 1562 337 1363 337 
C 1082 337 1069 696 1069 856 
L 1069 2368 
z
" transform="scale(0.015625)"/>
      <path id="CMSS17-69" d="M 979 4183 
L 442 4183 
L 442 3648 
L 979 3648 
L 979 4183 
z
M 947 2739 
L 474 2739 
L 474 0 
L 947 0 
L 947 2739 
z
" transform="scale(0.015625)"/>
      <path id="CMSS17-6c" d="M 947 4416 
L 474 4416 
L 474 0 
L 947 0 
L 947 4416 
z
" transform="scale(0.015625)"/>
      <path id="CMSS17-64" d="M 2611 4416 
L 2138 4416 
L 2138 2438 
C 1939 2603 1613 2756 1254 2756 
C 672 2756 211 2131 211 1347 
C 211 562 666 -64 1235 -64 
C 1677 -64 1971 172 2125 306 
L 2125 -13 
L 2611 -13 
L 2611 4416 
z
M 2125 836 
C 2125 747 2125 653 1926 482 
C 1798 375 1645 325 1498 325 
C 1152 325 698 576 698 1340 
C 698 2134 1210 2368 1562 2368 
C 1798 2368 1990 2254 2125 2065 
L 2125 836 
z
" transform="scale(0.015625)"/>
     </defs>
     <use xlink:href="#CMSS17-6b" transform="scale(0.996264)"/>
     <use xlink:href="#CMSS17-6f" transform="translate(43.000035 0) scale(0.996264)"/>
     <use xlink:href="#CMSS17-6e" transform="translate(89.843659 0) scale(0.996264)"/>
     <use xlink:href="#CMSS17-76" transform="translate(138.048602 0) scale(0.996264)"/>
     <use xlink:href="#CMSS17-65" transform="translate(181.048744 0) scale(0.996264)"/>
     <use xlink:href="#CMSS17-72" transform="translate(222.687566 0) scale(0.996264)"/>
     <use xlink:href="#CMSS17-74" transform="translate(254.597338 0) scale(0.996264)"/>
     <use xlink:href="#CMSS17-65" transform="translate(288.428905 0) scale(0.996264)"/>
     <use xlink:href="#CMSS17-72" transform="translate(330.067727 0) scale(0.996264)"/>
     <use xlink:href="#CMSS17-74" transform="translate(361.9775 0) scale(0.996264)"/>
     <use xlink:href="#CMSS17-74" transform="translate(427.038179 0) scale(0.996264)"/>
     <use xlink:href="#CMSS17-69" transform="translate(460.869746 0) scale(0.996264)"/>
     <use xlink:href="#CMSS17-6c" transform="translate(483.050469 0) scale(0.996264)"/>
     <use xlink:href="#CMSS17-64" transform="translate(536.460304 0) scale(0.996264)"/>
     <use xlink:href="#CMSS17-6d" transform="translate(584.665248 0) scale(0.996264)"/>
    </g>
   </g>
   <g id="text_3">
    <!-- 1 dm × 1 dm -->
    <g transform="translate(338.915713 300.808337) scale(0.14 -0.14)">
     <use xlink:href="#CMSS17-31" transform="scale(0.996264)"/>
     <use xlink:href="#CMSS17-64" transform="translate(78.072736 0) scale(0.996264)"/>
     <use xlink:href="#CMSS17-6d" transform="translate(126.277679 0) scale(0.996264)"/>
     <use xlink:href="#SFSS3583-d6" transform="translate(231.736047 0) scale(0.996264)"/>
     <use xlink:href="#CMSS17-31" transform="translate(332.405563 0) scale(0.996264)"/>
     <use xlink:href="#CMSS17-64" transform="translate(410.4783 0) scale(0.996264)"/>
     <use xlink:href="#CMSS17-6d" transform="translate(458.683243 0) scale(0.996264)"/>
    </g>
   </g>
  </g>
 </g>
 <defs>
  <clipPath id="p89f2fefc47">
   <rect x="10.8" y="10.8" width="371.012967" height="410.4"/>
  </clipPath>
 </defs>
</svg>
