<?xml version="1.0" encoding="utf-8" standalone="no"?>
<!DOCTYPE svg PUBLIC "-//W3C//DTD SVG 1.1//EN"
  "http://www.w3.org/Graphics/SVG/1.1/DTD/svg11.dtd">
<svg xmlns:xlink="http://www.w3.org/1999/xlink" width="432pt" height="432pt" viewBox="0 0 432 432" xmlns="http://www.w3.org/2000/svg" version="1.1">
 <metadata>
  <rdf:RDF xmlns:dc="http://purl.org/dc/elements/1.1/" xmlns:cc="http://creativecommons.org/ns#" xmlns:rdf="http://www.w3.org/1999/02/22-rdf-syntax-ns#">
   <cc:Work>
    <dc:type rdf:resource="http://purl.org/dc/dcmitype/StillImage"/>
    <dc:date>2026-02-22T21:30:05.607137</dc:date>
    <dc:format>image/svg+xml</dc:format>
    <dc:creator>
     <cc:Agent>
      <dc:title>Matplotlib v3.9.1, https://matplotlib.org/</dc:title>
     </cc:Agent>
    </dc:creator>
   </cc:Work>
  </rdf:RDF>
 </metadata>
 <defs>
  <style type="text/css">*{stroke-linejoin: round; stroke-linecap: butt}</style>
 </defs>
 <g id="figure_1">
  <g id="patch_1">
   <path d="M 0 432 
L 432 432 
L 432 0 
L 0 0 
L 0 432 
z
" style="fill: none"/>
  </g>
  <g id="axes_1">
   <g id="line2d_1">
    <path d="M 28.057752 216 
L 106.502081 216 
" clip-path="url(#pdf43761bfa)" style="fill: none; stroke: #000000; stroke-width: 2.5; stroke-linecap: square"/>
   </g>
   <g id="line2d_2">
    <path d="M 116.961324 216 
L 195.405653 216 
" clip-path="url(#pdf43761bfa)" style="fill: none; stroke: #000000; stroke-width: 2.5; stroke-linecap: square"/>
   </g>
   <g id="line2d_3">
    <path d="M 205.864897 216 
L 284.309225 216 
" clip-path="url(#pdf43761bfa)" style="fill: none; stroke: #000000; stroke-width: 2.5; stroke-linecap: square"/>
   </g>
   <g id="line2d_4">
    <path d="M 294.768469 216 
L 373.212797 216 
" clip-path="url(#pdf43761bfa)" style="fill: none; stroke: #000000; stroke-width: 2.5; stroke-linecap: square"/>
   </g>
   <g id="text_1">
    <!-- 1 m -->
    <g transform="translate(69.648528 208.504431) scale(0.16 -0.16)">
     <defs>
      <path id="CMSS17-31" d="M 1818 4288 
L 1696 4288 
C 1350 3940 947 3890 538 3890 
L 538 3520 
C 723 3520 1024 3520 1325 3667 
L 1325 369 
L 570 369 
L 570 0 
L 2573 0 
L 2573 369 
L 1818 369 
L 1818 4288 
z
" transform="scale(0.015625)"/>
      <path id="CMSS17-6d" d="M 4288 1877 
C 4288 2308 4179 2816 3462 2816 
C 2982 2816 2694 2516 2566 2331 
C 2451 2670 2182 2816 1798 2816 
C 1363 2816 1088 2568 941 2389 
L 941 2758 
L 474 2758 
L 474 0 
L 960 0 
L 960 1559 
C 960 1939 1101 2428 1555 2428 
C 2138 2428 2138 2016 2138 1829 
L 2138 0 
L 2624 0 
L 2624 1559 
C 2624 1939 2765 2428 3219 2428 
C 3802 2428 3802 2016 3802 1829 
L 3802 0 
L 4288 0 
L 4288 1877 
z
" transform="scale(0.015625)"/>
     </defs>
     <use xlink:href="#CMSS17-31" transform="scale(0.996264)"/>
     <use xlink:href="#CMSS17-6d" transform="translate(78.072736 0) scale(0.996264)"/>
    </g>
   </g>
   <g id="text_2">
    <!-- = 10 dm -->
    <g transform="translate(158.5521 208.504431) scale(0.16 -0.16)">
     <defs>
      <path id="CMSS17-3d" d="M 4147 2017 
C 4243 2017 4339 2017 4339 2125 
C 4339 2240 4230 2240 4122 2240 
L 550 2240 
C 442 2240 333 2240 333 2125 
C 333 2017 429 2017 525 2017 
L 4147 2017 
z
M 4122 896 
C 4230 896 4339 896 4339 1011 
C 4339 1119 4243 1119 4147 1119 
L 525 1119 
C 429 1119 333 1119 333 1011 
C 333 896 442 896 550 896 
L 4122 896 
z
" transform="scale(0.015625)"/>
      <path id="CMSS17-30" d="M 2758 2044 
C 2758 2405 2752 3077 2490 3596 
C 2227 4096 1805 4229 1504 4229 
C 1069 4229 698 3975 506 3570 
C 301 3146 243 2709 243 2044 
C 243 1589 262 1031 493 543 
C 755 5 1197 -128 1498 -128 
C 1894 -128 2278 81 2496 518 
C 2720 974 2758 1474 2758 2044 
z
M 1498 261 
C 1011 261 864 811 819 995 
C 742 1310 730 1614 730 2114 
C 730 2506 730 2948 851 3297 
C 998 3701 1254 3840 1498 3840 
C 1971 3840 2125 3372 2176 3208 
C 2272 2873 2272 2481 2272 2114 
C 2272 1526 2272 261 1498 261 
z
" transform="scale(0.015625)"/>
      <path id="CMSS17-64" d="M 2611 4416 
L 2138 4416 
L 2138 2438 
C 1939 2603 1613 2756 1254 2756 
C 672 2756 211 2131 211 1347 
C 211 562 666 -64 1235 -64 
C 1677 -64 1971 172 2125 306 
L 2125 -13 
L 2611 -13 
L 2611 4416 
z
M 2125 836 
C 2125 747 2125 653 1926 482 
C 1798 375 1645 325 1498 325 
C 1152 325 698 576 698 1340 
C 698 2134 1210 2368 1562 2368 
C 1798 2368 1990 2254 2125 2065 
L 2125 836 
z
" transform="scale(0.015625)"/>
     </defs>
     <use xlink:href="#CMSS17-3d" transform="scale(0.996264)"/>
     <use xlink:href="#CMSS17-31" transform="translate(104.097048 0) scale(0.996264)"/>
     <use xlink:href="#CMSS17-30" transform="translate(150.940671 0) scale(0.996264)"/>
     <use xlink:href="#CMSS17-64" transform="translate(229.013407 0) scale(0.996264)"/>
     <use xlink:href="#CMSS17-6d" transform="translate(277.21835 0) scale(0.996264)"/>
    </g>
   </g>
   <g id="text_3">
    <!-- = 100 cm -->
    <g transform="translate(247.455672 208.504431) scale(0.16 -0.16)">
     <defs>
      <path id="CMSS17-63" d="M 2464 2541 
C 2464 2585 2170 2714 2093 2739 
C 1882 2816 1613 2816 1542 2816 
C 710 2816 211 2093 211 1363 
C 211 595 768 -64 1517 -64 
C 1946 -64 2253 76 2502 242 
L 2464 664 
C 2189 453 1869 337 1523 337 
C 1024 337 698 774 698 1369 
C 698 1831 909 2414 1549 2414 
C 1901 2414 2099 2343 2394 2145 
L 2464 2541 
z
" transform="scale(0.015625)"/>
     </defs>
     <use xlink:href="#CMSS17-3d" transform="scale(0.996264)"/>
     <use xlink:href="#CMSS17-31" transform="translate(104.097048 0) scale(0.996264)"/>
     <use xlink:href="#CMSS17-30" transform="translate(150.940671 0) scale(0.996264)"/>
     <use xlink:href="#CMSS17-30" transform="translate(197.784295 0) scale(0.996264)"/>
     <use xlink:href="#CMSS17-63" transform="translate(275.857031 0) scale(0.996264)"/>
     <use xlink:href="#CMSS17-6d" transform="translate(317.495853 0) scale(0.996264)"/>
    </g>
   </g>
   <g id="text_4">
    <!-- = 1000 mm -->
    <g transform="translate(336.359244 208.504431) scale(0.16 -0.16)">
     <use xlink:href="#CMSS17-3d" transform="scale(0.996264)"/>
     <use xlink:href="#CMSS17-31" transform="translate(104.097048 0) scale(0.996264)"/>
     <use xlink:href="#CMSS17-30" transform="translate(150.940671 0) scale(0.996264)"/>
     <use xlink:href="#CMSS17-30" transform="translate(197.784295 0) scale(0.996264)"/>
     <use xlink:href="#CMSS17-30" transform="translate(244.627918 0) scale(0.996264)"/>
     <use xlink:href="#CMSS17-6d" transform="translate(322.700654 0) scale(0.996264)"/>
     <use xlink:href="#CMSS17-6d" transform="translate(396.929909 0) scale(0.996264)"/>
    </g>
   </g>
   <g id="text_5">
    <!-- eller -->
    <g transform="translate(69.648528 292.178381) scale(0.16 -0.16)">
     <defs>
      <path id="CMSS17-65" d="M 2502 1377 
C 2502 1590 2490 2003 2285 2345 
C 2061 2713 1696 2816 1421 2816 
C 755 2816 192 2188 192 1375 
C 192 582 774 -64 1510 -64 
C 1798 -64 2150 19 2470 248 
C 2470 274 2458 414 2451 420 
C 2451 433 2432 630 2432 656 
C 2125 407 1773 325 1517 325 
C 1107 325 666 667 646 1377 
L 2502 1377 
z
M 698 1728 
C 781 2084 1062 2421 1421 2421 
C 1517 2421 1965 2421 2080 1728 
L 698 1728 
z
" transform="scale(0.015625)"/>
      <path id="CMSS17-6c" d="M 947 4416 
L 474 4416 
L 474 0 
L 947 0 
L 947 4416 
z
" transform="scale(0.015625)"/>
      <path id="CMSS17-72" d="M 954 1363 
C 954 1965 1395 2368 1958 2368 
L 1958 2789 
C 1549 2789 1165 2585 934 2253 
L 934 2758 
L 480 2758 
L 480 0 
L 954 0 
L 954 1363 
z
" transform="scale(0.015625)"/>
     </defs>
     <use xlink:href="#CMSS17-65" transform="scale(0.996264)"/>
     <use xlink:href="#CMSS17-6c" transform="translate(41.638822 0) scale(0.996264)"/>
     <use xlink:href="#CMSS17-6c" transform="translate(63.819545 0) scale(0.996264)"/>
     <use xlink:href="#CMSS17-65" transform="translate(86.000268 0) scale(0.996264)"/>
     <use xlink:href="#CMSS17-72" transform="translate(127.63909 0) scale(0.996264)"/>
    </g>
   </g>
   <g id="text_6">
    <!-- eller -->
    <g transform="translate(158.5521 292.178381) scale(0.16 -0.16)">
     <use xlink:href="#CMSS17-65" transform="scale(0.996264)"/>
     <use xlink:href="#CMSS17-6c" transform="translate(41.638822 0) scale(0.996264)"/>
     <use xlink:href="#CMSS17-6c" transform="translate(63.819545 0) scale(0.996264)"/>
     <use xlink:href="#CMSS17-65" transform="translate(86.000268 0) scale(0.996264)"/>
     <use xlink:href="#CMSS17-72" transform="translate(127.63909 0) scale(0.996264)"/>
    </g>
   </g>
   <g id="text_7">
    <!-- eller -->
    <g transform="translate(247.455672 292.178381) scale(0.16 -0.16)">
     <use xlink:href="#CMSS17-65" transform="scale(0.996264)"/>
     <use xlink:href="#CMSS17-6c" transform="translate(41.638822 0) scale(0.996264)"/>
     <use xlink:href="#CMSS17-6c" transform="translate(63.819545 0) scale(0.996264)"/>
     <use xlink:href="#CMSS17-65" transform="translate(86.000268 0) scale(0.996264)"/>
     <use xlink:href="#CMSS17-72" transform="translate(127.63909 0) scale(0.996264)"/>
    </g>
   </g>
  </g>
 </g>
 <defs>
  <clipPath id="pdf43761bfa">
   <rect x="10.8" y="10.8" width="379.670549" height="410.4"/>
  </clipPath>
 </defs>
</svg>
