<?xml version="1.0" encoding="UTF-8" standalone="no"?>
<svg width="400" height="400" viewBox="0 0 400 400" xmlns="http://www.w3.org/2000/svg">
  <line x1="20" y1="350" x2="380" y2="350" stroke="black" stroke-width="2" />

  <rect x="240" y="150" width="30" height="200" fill="#8B4513" />
  <circle cx="255" cy="150" r="70" fill="#228B22" />

  <line x1="140" y1="350" x2="240" y2="180" stroke="#555" stroke-width="6" stroke-linecap="round" />
  
  <line x1="150" y1="333" x2="160" y2="316" stroke="#555" stroke-width="3" />
  <line x1="170" y1="299" x2="180" y2="282" stroke="#555" stroke-width="3" />
  <line x1="190" y1="265" x2="200" y2="248" stroke="#555" stroke-width="3" />
  <line x1="210" y1="231" x2="220" y2="214" stroke="#555" stroke-width="3" />

  <rect x="240" y="320" width="30" height="30" fill="none" stroke="black" />
  <circle cx="255" cy="335" r="2" fill="black" />

  <line x1="140" y1="370" x2="240" y2="370" stroke="black" stroke-width="1" />
  <line x1="140" y1="365" x2="140" y2="375" stroke="black" stroke-width="1" />
  <line x1="240" y1="365" x2="240" y2="375" stroke="black" stroke-width="1" />
  <text x="190" y="385" font-family="Arial" font-size="16" text-anchor="middle">1,5 m</text>

  <text x="170" y="250" font-family="Arial" font-size="16" fill="black" transform="rotate(-60 170,250)">5 m</text>

  <line x1="235" y1="180" x2="235" y2="350" stroke="black" stroke-width="1" stroke-dasharray="4" />
  <text x="225" y="270" font-family="Arial" font-size="16" fill="black" font-style="italic" text-anchor="end">h</text>
</svg>